<?xml version="1.0" encoding="utf-8"?>
<!-- Generator: Adobe Illustrator 14.0.0, SVG Export Plug-In . SVG Version: 6.00 Build 43363)  -->
<!DOCTYPE svg PUBLIC "-//W3C//DTD SVG 1.1//EN" "http://www.w3.org/Graphics/SVG/1.1/DTD/svg11.dtd">
<svg version="1.1" id="Layer_1" xmlns="http://www.w3.org/2000/svg" xmlns:xlink="http://www.w3.org/1999/xlink" x="0px" y="0px"
	 width="992.131px" height="992.129px" viewBox="0 0 992.131 992.129" enable-background="new 0 0 992.131 992.129"
	 xml:space="preserve">
<path fill="#252525" d="M0,520.844l18.396,9.48c18.327,9.658,55.325,28.353,91.841,40.37
	c36.723,12.018,73.721,16.469,110.237,14.242c36.722-2.225,73.721-12.018,110.236-26.126c36.723-14.377,73.721-33.07,110.237-33.204
	c36.723,0.134,73.721,18.827,110.236,16.602c36.723-2.226,73.721-26.26,110.236-37.966c36.723-11.884,73.721-11.884,110.237,7.122
	c36.723,18.826,73.721,57.104,110.236,61.688c36.723,4.764,73.721-23.724,91.635-37.966l18.603-14.243v85.457h-18.396
	c-18.326,0-55.325,0-91.841,0c-36.723,0-73.721,0-110.236,0c-36.723,0-73.721,0-110.237,0c-36.723,0-73.721,0-110.236,0
	c-36.723,0-73.721,0-110.236,0c-36.723,0-73.722,0-110.237,0c-36.723,0-73.721,0-110.236,0c-36.723,0-73.722,0-110.237,0
	c-36.723,0-73.721,0-91.634,0H0V520.844z"/>
</svg>
