<?xml version="1.0" encoding="utf-8"?>
<!-- Generator: Adobe Illustrator 14.0.0, SVG Export Plug-In . SVG Version: 6.00 Build 43363)  -->
<!DOCTYPE svg PUBLIC "-//W3C//DTD SVG 1.1//EN" "http://www.w3.org/Graphics/SVG/1.1/DTD/svg11.dtd">
<svg version="1.1" id="Layer_1" xmlns="http://www.w3.org/2000/svg" xmlns:xlink="http://www.w3.org/1999/xlink" x="0px" y="0px"
	 width="255.555px" height="290.234px" viewBox="0 70.766 255.555 290.234" enable-background="new 0 70.766 255.555 290.234"
	 xml:space="preserve">
<g>
	<path fill="#264DE4" d="M127.844,360.088L23.661,331.166L0.446,70.766h255.109l-23.241,260.359L127.844,360.088L127.844,360.088z"
		/>
	<path fill="#2965F1" d="M212.416,314.547l19.861-222.49H128V337.95L212.416,314.547L212.416,314.547z"/>
	<path fill="#EBEBEB" d="M53.668,188.637l2.862,31.936H128v-31.936H53.668L53.668,188.637z"/>
	<path fill="#EBEBEB" d="M47.917,123.995l2.903,31.938H128v-31.938H47.917L47.917,123.995z"/>
	<path fill="#EBEBEB" d="M128,271.58l-0.141,0.037l-35.568-9.604l-2.273-25.472h-32.06l4.474,50.146l65.421,18.161l0.147-0.04
		V271.58L128,271.58z"/>
	<path d="M60.484,0h38.682v16.176H76.659v16.176h22.506v16.176H60.484V0L60.484,0z"/>
	<path d="M106.901,0h38.682v14.066h-22.505v2.813h22.505v32.352h-38.682v-14.77h22.506v-2.813h-22.506V0L106.901,0z"/>
	<path d="M153.319,0H192v14.066h-22.506v2.813H192v32.352h-38.682v-14.77h22.506v-2.813h-22.506V0L153.319,0z"/>
	<path fill="#FFFFFF" d="M202.127,188.637l5.766-64.642H127.89v31.938h45.002l-2.905,32.705H127.89v31.936h39.326l-3.707,41.42
		l-35.619,9.615v33.227l65.473-18.146l0.48-5.396l7.505-84.08L202.127,188.637L202.127,188.637z"/>
</g>
</svg>
