<?xml version="1.0" encoding="utf-8"?>
<!-- Generator: Adobe Illustrator 14.0.0, SVG Export Plug-In . SVG Version: 6.00 Build 43363)  -->
<!DOCTYPE svg PUBLIC "-//W3C//DTD SVG 1.1//EN" "http://www.w3.org/Graphics/SVG/1.1/DTD/svg11.dtd">
<svg version="1.1" id="Layer_1" xmlns="http://www.w3.org/2000/svg" xmlns:xlink="http://www.w3.org/1999/xlink" x="0px" y="0px"
	 width="992.131px" height="992.129px" viewBox="0 0 992.131 992.129" enable-background="new 0 0 992.131 992.129"
	 xml:space="preserve">
<path fill="#FFA000" d="M144.385,798.267L265.503,23.243c1.48-9.505,8.873-16.999,18.359-18.61
	c9.483-1.61,18.935,3.024,23.467,11.509l125.26,233.624l49.927-95.061c3.864-7.35,11.49-11.952,19.793-11.952
	c8.309,0,15.93,4.603,19.795,11.952l338.026,643.563H144.385L144.385,798.267z"/>
<path fill="#F57C00" d="M562.819,496.363L432.531,249.655L144.385,798.267L562.819,496.363z"/>
<path fill="#FFCA28" d="M860.138,798.267l-92.77-574.056c-1.399-8.242-7.285-15.015-15.25-17.567
	c-7.968-2.553-16.688-0.428-22.604,5.481L144.385,798.26L468.15,979.829c20.332,11.348,45.095,11.348,65.427,0L860.138,798.26
	V798.267z"/>
<path fill="#FFFFFF" fill-opacity="0.2" d="M767.368,224.211c-1.399-8.242-7.285-15.015-15.252-17.567
	c-7.966-2.553-16.686-0.428-22.603,5.481L613.378,328.557l-91.322-173.856c-3.868-7.352-11.49-11.953-19.794-11.953
	c-8.308,0-15.929,4.601-19.798,11.953l-49.927,95.061L307.274,16.141c-4.543-8.487-14.005-13.113-23.499-11.492
	c-9.497,1.624-16.865,9.136-18.329,18.649L144.385,798.267h-0.392l0.392,0.451l3.185,1.56l581.774-582.441
	c5.913-5.943,14.653-8.079,22.644-5.534c7.99,2.546,13.88,9.343,15.271,17.612l91.982,568.913l0.897-0.562L767.368,224.211
	L767.368,224.211z M145.446,797.208l120.057-768.43c1.463-9.512,8.849-17.023,18.335-18.646s18.948,3.003,23.5,11.49
	l125.252,233.624l49.927-95.059c3.864-7.352,11.49-11.952,19.793-11.952c8.309,0,15.93,4.601,19.795,11.952l89.47,170.159
	L145.442,797.208H145.446z"/>
<path opacity="0.2" fill="#A52714" enable-background="new    " d="M533.577,974.352c-20.332,11.354-45.095,11.354-65.427,0
	L145.168,793.291l-0.783,4.977L468.15,979.78c20.332,11.354,45.091,11.354,65.422,0l326.563-181.513l-0.839-5.143l-325.72,181.234
	V974.352z"/>
<g>
	
		<linearGradient id="b_1_" gradientUnits="userSpaceOnUse" x1="-0.5095" y1="993.0894" x2="3.1927" y2="990.3964" gradientTransform="matrix(200.9646 0 0 -277.1192 223.5191 275376.0625)">
		<stop  offset="0" style="stop-color:#FFFFFF;stop-opacity:0.1"/>
		<stop  offset="0.14" style="stop-color:#FFFFFF;stop-opacity:0.08"/>
		<stop  offset="0.61" style="stop-color:#FFFFFF;stop-opacity:0.02"/>
		<stop  offset="1" style="stop-color:#FFFFFF;stop-opacity:0"/>
	</linearGradient>
	<path id="b" fill="url(#b_1_)" d="M766.44,224.332c-1.393-8.242-7.258-15.018-15.198-17.555
		c-7.936-2.537-16.626-0.428-22.525,5.481L612.983,328.629l-90.996-173.774c-3.854-7.348-11.448-11.949-19.725-11.949
		c-8.276,0-15.871,4.601-19.724,11.949l-49.761,95.021L307.957,16.351C303.431,7.868,294,3.241,284.548,4.865
		c-9.455,1.624-16.813,9.129-18.272,18.64l-120.64,774.632l322.636,181.429c20.258,11.348,44.933,11.348,65.195,0l325.421-181.429
		L766.44,224.329V224.332z"/>
</g>
</svg>
