<?xml version="1.0" encoding="utf-8"?>
<!-- Generator: Adobe Illustrator 14.0.0, SVG Export Plug-In . SVG Version: 6.00 Build 43363)  -->
<!DOCTYPE svg PUBLIC "-//W3C//DTD SVG 1.1//EN" "http://www.w3.org/Graphics/SVG/1.1/DTD/svg11.dtd">
<svg version="1.1" id="Layer_1" xmlns="http://www.w3.org/2000/svg" xmlns:xlink="http://www.w3.org/1999/xlink" x="0px" y="0px"
	 width="255.555px" height="290.234px" viewBox="0 70.766 255.555 290.234" enable-background="new 0 70.766 255.555 290.234"
	 xml:space="preserve">
<g>
	<path fill="#E44D26" d="M255.555,70.766l-23.241,260.359l-104.47,28.963L23.661,331.166L0.446,70.766H255.555L255.555,70.766z"/>
	<path fill="#F16529" d="M128,337.95l84.416-23.403l19.861-222.49H128V337.95L128,337.95z"/>
	<path fill="#EBEBEB" d="M82.821,155.932H128v-31.938H47.917l0.765,8.568l7.849,88.009H128v-31.936H85.739L82.821,155.932
		L82.821,155.932z"/>
	<path fill="#EBEBEB" d="M90.018,236.542h-32.06l4.474,50.146l65.421,18.161l0.147-0.04V271.58l-0.141,0.037l-35.568-9.604
		L90.018,236.542L90.018,236.542z"/>
	<path d="M24.181,0H40.41v16.035h14.847V0h16.23v48.559H55.258v-16.26H40.411v16.26H24.182L24.181,0L24.181,0L24.181,0z"/>
	<path d="M92.831,16.103H78.543V0h44.813v16.103h-14.294v32.456H92.831V16.103L92.831,16.103L92.831,16.103z"/>
	<path d="M130.469,0h16.924l10.41,17.062L168.202,0h16.93v48.559h-16.163V24.49l-11.166,17.265h-0.279L146.35,24.49v24.068h-15.881
		V0L130.469,0z"/>
	<path d="M193.209,0h16.235v32.508h22.824v16.051h-39.06V0L193.209,0z"/>
	<path fill="#FFFFFF" d="M127.89,220.572h39.326l-3.707,41.42l-35.619,9.615v33.227l65.473-18.146l0.48-5.396l7.505-84.08
		l0.779-8.575H127.89V220.572L127.89,220.572z"/>
	<path fill="#FFFFFF" d="M127.89,155.854v0.078h77.143l0.641-7.179l1.455-16.19l0.765-8.568H127.89V155.854L127.89,155.854z"/>
</g>
</svg>
